<svg width="80" height="81" viewBox="0 0 80 81" fill="none" xmlns="http://www.w3.org/2000/svg">
<rect width="40" height="40" fill="#E30613"/>
<path d="M71.3102 28.9726L41.3088 13.147C40.919 12.9421 40.4505 12.9516 40.0694 13.1746L8.64013 31.5837C8.235 31.8206 7.99003 32.2615 8.00031 32.7344C8.01145 33.2065 8.27526 33.6362 8.69067 33.855L17.6533 38.5826V51.0415C17.6533 51.5248 17.9197 51.9666 18.3445 52.1914L23.2113 54.754V63.7078C20.9612 64.2854 19.2901 66.3327 19.2901 68.77C19.2901 71.6543 21.6259 74 24.4961 74C27.3663 74 29.7003 71.6543 29.7003 68.77C29.7003 66.3327 28.0301 64.2845 25.7809 63.7087V56.1071L39.4047 63.2816C39.5906 63.3793 39.7944 63.4286 39.9983 63.4286C40.2021 63.4286 40.4068 63.3793 40.5919 63.2816L61.6546 52.1905C62.0794 51.9657 62.3458 51.5239 62.3458 51.0406V36.5231L71.3599 31.2439C71.765 31.007 72.01 30.566 71.9997 30.0931C71.9894 29.621 71.7248 29.1913 71.3102 28.9726ZM27.1299 68.77C27.1299 70.2243 25.9479 71.4062 24.4952 71.4062C23.0417 71.4062 21.8588 70.2243 21.8588 68.77C21.8588 67.3158 23.0417 66.1339 24.4952 66.1339C25.9479 66.1339 27.1299 67.3158 27.1299 68.77ZM20.222 50.2538V39.9374L23.2096 41.5127V51.8274L20.222 50.2538ZM59.7763 50.2538L39.9974 60.6679L25.7792 53.1805V42.8693L38.6895 49.6788C38.8762 49.7774 39.0801 49.8267 39.2839 49.8267C39.5075 49.8267 39.7302 49.7679 39.9289 49.6512L59.7754 38.0284V50.2538H59.7763ZM39.2523 47.0487L26.6751 40.4147L37.1281 34.1074C37.803 34.64 38.6433 34.972 39.5657 34.972C41.7567 34.972 43.5392 33.1806 43.5392 30.9784C43.5392 28.7772 41.7567 26.9857 39.5657 26.9857C37.3756 26.9857 35.594 28.7772 35.594 30.9784C35.594 31.3096 35.6463 31.6269 35.7217 31.9338L24.0019 39.0054L11.9455 32.6463L40.7452 15.7779L68.0528 30.1821L39.2523 47.0487ZM38.1645 30.9776C38.1645 30.2064 38.7932 29.5787 39.5666 29.5787C40.34 29.5787 40.9704 30.2064 40.9704 30.9776C40.9704 31.7497 40.3409 32.3774 39.5666 32.3774C38.7932 32.3774 38.1645 31.7497 38.1645 30.9776Z" fill="black"/>
</svg>
