<svg width="92" height="80" viewBox="0 0 92 80" fill="none" xmlns="http://www.w3.org/2000/svg">
<rect x="52" y="40" width="40" height="40" fill="#FFE120"/>
<path d="M54.1085 33.6122V23.2451C54.1085 20.3488 52.194 18.001 49.8325 18.001H19.9009C17.5394 18.001 15.625 20.3488 15.625 23.2451V59.9536C15.625 62.8498 15.625 65.1977 15.625 65.1977H39.5864" stroke="black" stroke-width="3" stroke-linecap="round" stroke-linejoin="round"/>
<path d="M62.1758 33.9751H42.4097C40.8502 33.9751 39.5859 35.5283 39.5859 37.4443V61.7284V65.1975H64.9995V61.7284V37.4443C64.9995 35.5283 63.7353 33.9751 62.1758 33.9751Z" stroke="black" stroke-width="3" stroke-linecap="round" stroke-linejoin="round"/>
<path d="M24.3359 11.4658V21.8733" stroke="black" stroke-width="3" stroke-linecap="square" stroke-linejoin="round"/>
<path d="M31.5977 35.4272H22.8844" stroke="black" stroke-width="3" stroke-linecap="round" stroke-linejoin="round"/>
<path d="M31.5977 43.7773H22.8844" stroke="black" stroke-width="3" stroke-linecap="round" stroke-linejoin="round"/>
<path d="M56.2852 43.7776H47.5719" stroke="black" stroke-width="3" stroke-linecap="round" stroke-linejoin="round"/>
<path d="M31.5977 52.1279H22.8844" stroke="black" stroke-width="3" stroke-linecap="round" stroke-linejoin="round"/>
<path d="M56.2852 52.1277H47.5719" stroke="black" stroke-width="3" stroke-linecap="round" stroke-linejoin="round"/>
</svg>
