<svg width="74" height="75" viewBox="0 0 74 75" fill="none" xmlns="http://www.w3.org/2000/svg">
<rect x="34" y="0.765625" width="40" height="40" fill="#E30613"/>
<path d="M43.7599 50.9229C41.3983 50.9221 39.1095 51.7433 37.2837 53.2465L31.4281 47.6569C32.7346 45.8939 33.4404 43.7554 33.4412 41.5582C33.4412 41.2711 33.4412 41.0166 33.398 40.7079L41.8171 38.6497C43.2178 41.6034 46.6078 43.0272 49.6872 41.9554C52.7667 40.8835 54.5502 37.6588 53.8279 34.469C53.1055 31.2792 50.1084 29.145 46.8698 29.5142C43.6312 29.8834 41.1875 32.6379 41.1964 35.909C41.1964 35.9903 41.1964 36.0661 41.1964 36.1474L32.8637 38.1893C31.7327 34.9104 29.0276 32.427 25.6729 31.5877C22.3183 30.7485 18.7682 31.6671 16.236 34.0296L12.1129 30.5686C13.6971 27.6495 12.8205 24.0006 10.0849 22.1267C7.34919 20.2529 3.64394 20.7634 1.51264 23.3078C-0.618653 25.8522 -0.483012 29.6032 1.82646 31.9858C4.13592 34.3685 7.8683 34.6081 10.4614 32.5401L14.5846 36.0011C12.2254 39.6546 12.4312 44.4068 15.0973 47.8411L10.4182 52.3041C7.83152 50.2816 4.13921 50.5524 1.87297 52.9309C-0.393276 55.3093 -0.497776 59.0233 1.63112 61.5263C3.76001 64.0294 7.43121 64.5089 10.1275 62.6361C12.8239 60.7633 13.67 57.1461 12.0859 54.2648L16.8837 49.6826C20.6486 52.6494 25.9617 52.5931 29.6634 49.5472L35.5189 55.0989C33.7524 57.4759 33.106 60.5077 33.7488 63.402L27.6342 65.5685C26.12 62.7002 22.7116 61.4163 19.6908 62.5764C16.6701 63.7364 14.9863 66.9758 15.7668 70.1259C16.5472 73.276 19.5466 75.3467 22.7569 74.9518C25.9673 74.5569 28.3796 71.8205 28.3789 68.5746C28.3789 68.3958 28.3789 68.2171 28.3789 68.0329L34.5853 65.8393C36.8545 70.3654 42.0687 72.5604 46.8761 71.0133C51.6836 69.4661 54.6536 64.6373 53.8771 59.6309C53.1005 54.6245 48.8085 50.9303 43.7599 50.9229ZM47.6079 32.0527C49.1979 32.0608 50.6191 33.0496 51.1846 34.5411C51.7501 36.0325 51.3432 37.7194 50.1608 38.7863C48.9783 39.8531 47.2638 40.0802 45.8461 39.3578C44.4283 38.6353 43.5994 37.1121 43.7599 35.5245C43.9599 33.5473 45.6223 32.0453 47.6025 32.0527H47.6079ZM6.45697 31.3702C4.52344 31.3775 2.88302 29.9476 2.61963 28.0252C2.35623 26.1027 3.55119 24.2815 5.41493 23.7648C7.27866 23.2481 9.2357 24.1955 9.99292 25.981C10.7501 27.7665 10.0737 29.8388 8.41062 30.8286C7.81933 31.1811 7.14471 31.3681 6.45697 31.3702ZM10.3049 57.3683C10.3073 59.3835 8.76745 61.0627 6.76621 61.2273C4.76497 61.3918 2.97327 59.9865 2.64886 57.9978C2.32444 56.0091 3.57607 54.1037 5.52511 53.6192C7.47415 53.1347 9.46723 54.2335 10.1052 56.1442C10.2341 56.5356 10.2997 56.9452 10.2995 57.3575L10.3049 57.3683ZM23.1818 49.2764C21.6005 49.2767 20.0581 48.7846 18.7672 47.8682C18.0647 47.369 17.45 46.7558 16.9484 46.0537C15.1645 43.5852 15.0098 40.2898 16.5545 37.6639C16.982 36.9216 17.5291 36.2554 18.1735 35.6924C20.4216 33.7555 23.5789 33.288 26.2885 34.491C28.9981 35.6939 30.7773 38.353 30.8615 41.3253C30.8615 41.4011 30.8615 41.477 30.8615 41.5582C30.8669 43.1026 30.408 44.6128 29.5446 45.8912C29.0597 46.6052 28.4596 47.233 27.7691 47.749C26.4449 48.7428 24.8353 49.2787 23.1818 49.2764ZM21.9675 72.4634C19.8467 72.4604 18.1293 70.7337 18.1303 68.6052C18.1313 66.4768 19.8503 64.7517 21.9711 64.7507C24.0919 64.7497 25.8124 66.4732 25.8154 68.6016C25.8154 68.7316 25.8154 68.8562 25.8154 68.9808C25.6205 70.9643 23.9534 72.4731 21.9675 72.4634ZM43.7599 68.9374C39.5126 68.9374 36.0694 65.4819 36.0694 61.2193C36.0694 56.9566 39.5126 53.5011 43.7599 53.5011C48.0073 53.5011 51.4504 56.9566 51.4504 61.2193C51.4474 65.4807 48.006 68.9345 43.7599 68.9374Z" fill="black"/>
</svg>
