<svg width="90" height="80" viewBox="0 0 90 80" fill="none" xmlns="http://www.w3.org/2000/svg">
<rect x="50" y="2" width="40" height="40" fill="#00B1EB"/>
<path d="M22.0751 52.9217C18.7169 48.9105 16.6953 43.742 16.6953 38.1014C16.6953 28.4821 22.5746 20.236 30.9358 16.7605" stroke="black" stroke-width="3"/>
<path d="M39.626 61.2027L39.626 62.7027L39.6304 62.7027L39.626 61.2027ZM39.5567 16.5002C51.4867 16.5002 61.1579 26.1715 61.1579 38.1015H64.1579C64.1579 24.5146 53.1436 13.5002 39.5567 13.5002V16.5002ZM61.1579 38.1015C61.1579 50.0099 51.5217 59.6677 39.6216 59.7027L39.6304 62.7027C53.1835 62.6629 64.1579 51.6638 64.1579 38.1015H61.1579ZM39.626 59.7027L17.9375 59.7028L17.9375 62.7028L39.626 62.7027L39.626 59.7027Z" fill="black"/>
<path d="M58 61.0002C58.0089 61.0004 68.5869 61.2022 68.5958 61.2024L58 61.0002Z" stroke="black" stroke-width="3"/>
<path d="M64 55L70 61.5L64 68" stroke="black" stroke-width="3" stroke-linecap="square"/>
<path d="M45 22.0002L39 15.5002L45 9.00024" stroke="black" stroke-width="3" stroke-linecap="square"/>
<rect x="11" y="57.405" width="7.59494" height="7.59494" stroke="black" stroke-width="3"/>
</svg>
