<svg width="80" height="80" viewBox="0 0 80 80" fill="none" xmlns="http://www.w3.org/2000/svg">
<rect x="40" width="40" height="40" fill="#00B1EB"/>
<path d="M40.2599 17.1737L55.7982 26.2094C56.7928 26.7878 56.7928 28.2244 55.7982 28.8028L40.2599 37.8385C39.7938 38.1096 39.218 38.1096 38.7518 37.8385L23.2135 28.8028C22.2189 28.2244 22.2189 26.7878 23.2135 26.2094L38.7518 17.1737C39.218 16.9026 39.7938 16.9026 40.2599 17.1737Z" stroke="black" stroke-width="3" stroke-linejoin="round"/>
<path d="M36.9503 44.1114L36.8943 62.0859C36.8907 63.2364 35.6466 63.9547 34.6484 63.3826L19.0541 54.4439C18.5862 54.1757 18.2983 53.6771 18.3 53.1378L18.356 35.1634C18.3596 34.0129 19.6038 33.2945 20.602 33.8667L36.1963 42.8054C36.6641 43.0736 36.952 43.5722 36.9503 44.1114Z" stroke="black" stroke-width="3" stroke-linejoin="round"/>
<path d="M60.1963 54.4441L44.602 63.3828C43.6038 63.955 42.3596 63.2367 42.356 62.0861L42.3 44.1117C42.2983 43.5725 42.5862 43.0738 43.0541 42.8057L58.6484 33.867C59.6466 33.2948 60.8907 34.0131 60.8943 35.1637L60.9503 53.1381C60.952 53.6773 60.6641 54.176 60.1963 54.4441Z" stroke="black" stroke-width="3" stroke-linejoin="round"/>
</svg>
