<svg width="80" height="80" viewBox="0 0 80 80" fill="none" xmlns="http://www.w3.org/2000/svg">
<rect y="19" width="40" height="40" fill="#00B1EB"/>
<path d="M55.2137 21.5581C63.3715 25.4408 68.9984 33.6643 68.9984 43.1813C68.9984 56.4387 58.0794 67.1859 44.6101 67.1859C40.1334 67.1859 35.9385 65.9988 32.3325 63.9268C31.6932 63.5595 32.5263 63.9859 31.9258 63.5647" stroke="black" stroke-width="3"/>
<circle cx="36.5" cy="38.5" r="25" stroke="black" stroke-width="3"/>
<path d="M27 41.2718V39.3633H29.1741C29.1369 38.913 29.1184 38.453 29.1184 37.9832C29.1184 37.67 29.1276 37.3568 29.1462 37.0436H27V35.1351H29.3692C29.7966 32.9035 30.6885 31.1614 32.045 29.9086C33.4015 28.6362 35.0739 28 37.0622 28C38.7903 28 40.2304 28.3915 41.3825 29.1745C42.5532 29.9575 43.3801 31.0831 43.8633 32.5512L41.3825 33.755C41.1224 32.6784 40.63 31.8661 39.9053 31.318C39.1991 30.7699 38.3165 30.4958 37.2573 30.4958C35.9937 30.4958 34.9253 30.9069 34.0519 31.729C33.1971 32.5316 32.6025 33.667 32.268 35.1351H38.9018L38.3444 37.0436H32.0172C31.9986 37.3568 31.9893 37.67 31.9893 37.9832C31.9893 38.4726 32.0079 38.9326 32.045 39.3633H37.7869L37.2294 41.2718H32.3516C32.6861 42.6029 33.2622 43.6404 34.0798 44.3842C34.8974 45.1085 35.9566 45.4706 37.2573 45.4706C38.3537 45.4706 39.2735 45.1575 40.0168 44.5311C40.7786 43.9047 41.3082 42.9846 41.6055 41.771L44.1141 42.6519C43.631 44.3549 42.7762 45.6664 41.5498 46.5864C40.3419 47.5064 38.874 47.9665 37.1458 47.9665C35.0832 47.9665 33.3922 47.3792 32.0729 46.2047C30.7536 45.0106 29.8709 43.3663 29.425 41.2718H27Z" fill="black"/>
</svg>
