<svg width="311" height="102" viewBox="0 0 311 102" fill="none" xmlns="http://www.w3.org/2000/svg">
<path d="M63.7344 1.24316V7.7171H94.0569V38.0133H100.534V1.24316H63.7344Z" fill="#1E1E1C"/>
<path d="M36.9226 1.24316H0.222656V38.0133H6.68156V7.7171H36.9226V1.24316Z" fill="#1E1E1C"/>
<path d="M36.9226 95.1649H6.68156V64.8506H0.222656V101.639H36.9226V95.1649Z" fill="#1E1E1C"/>
<path d="M94.0569 64.8506V95.1649H63.7344V101.639H100.534V64.8506H94.0569Z" fill="#1E1E1C"/>
<path d="M128.742 1.24304H138.259C140.207 1.21713 142.142 1.5676 143.958 2.27525C145.603 2.91637 147.104 3.87989 148.372 5.10929C149.6 6.31627 150.57 7.7612 151.222 9.35583C151.902 11.0411 152.243 12.8442 152.226 14.6618C152.245 16.4917 151.891 18.3064 151.186 19.9948C150.52 21.591 149.539 23.0356 148.3 24.2414C147.032 25.458 145.538 26.4146 143.903 27.0573C142.145 27.753 140.267 28.1005 138.376 28.0805H128.742V1.24304ZM135.138 7.20087V22.0955H138.078C139.166 22.1112 140.247 21.9176 141.262 21.525C142.169 21.1673 142.994 20.6281 143.686 19.9405C144.359 19.2657 144.882 18.4576 145.224 17.5682C145.587 16.6426 145.768 15.6559 145.758 14.6618C145.768 13.6605 145.593 12.666 145.242 11.7281C144.915 10.8397 144.404 10.031 143.741 9.35583C143.05 8.65813 142.217 8.11769 141.298 7.77131C140.234 7.37513 139.105 7.18166 137.969 7.20087H135.138Z" fill="#1E1E1C"/>
<path d="M156.168 1.24316H162.636V28.0806H156.168V1.24316Z" fill="#1E1E1C"/>
<path d="M180.721 28.4518C178.706 28.4823 176.707 28.1066 174.841 27.3471C173.172 26.6663 171.662 25.6457 170.408 24.3501C169.194 23.0869 168.244 21.5939 167.613 19.9587C166.965 18.2685 166.636 16.4723 166.645 14.6618C166.631 12.8009 166.982 10.9553 167.676 9.22914C168.324 7.59446 169.289 6.10483 170.517 4.84679C171.768 3.60367 173.249 2.61645 174.877 1.9403C176.851 1.1767 178.959 0.819219 181.074 0.889225C183.19 0.959232 185.269 1.45529 187.189 2.34775C189.041 3.29243 190.66 4.63784 191.929 6.28645L186.564 10.0712C185.956 9.09382 185.101 8.29428 184.086 7.75327C182.966 7.1869 181.722 6.90988 180.467 6.94742C179.469 6.93761 178.48 7.13813 177.564 7.53596C176.692 7.91719 175.902 8.46459 175.239 9.14766C174.551 9.85025 174.007 10.6807 173.638 11.5924C173.238 12.5658 173.038 13.6096 173.05 14.6618C173.032 15.7318 173.22 16.7951 173.601 17.7947C173.95 18.7007 174.48 19.5263 175.157 20.2213C175.843 20.9099 176.666 21.4466 177.573 21.7967C178.544 22.1745 179.579 22.362 180.621 22.3491C182.004 22.3929 183.366 22.007 184.52 21.2444C185.588 20.4838 186.387 19.4023 186.8 18.1568H179.337V12.199H193.747V15.2866C193.763 17.0154 193.456 18.732 192.842 20.348C192.242 21.9111 191.341 23.3414 190.192 24.5584C189.024 25.777 187.625 26.7498 186.076 27.4196C184.385 28.142 182.559 28.4939 180.721 28.4518V28.4518Z" fill="#1E1E1C"/>
<path d="M197.797 1.24316H204.265V28.0806H197.797V1.24316Z" fill="#1E1E1C"/>
<path d="M214.759 7.13762H207.477V1.24316H228.21V7.13762H220.973V28.0534H214.732L214.759 7.13762Z" fill="#1E1E1C"/>
<path d="M236.869 1.24316H243.084L253.034 28.0806H246.53L245.137 24.0785H234.806L233.413 28.0806H226.945L236.869 1.24316ZM236.796 18.4919H243.129L239.963 9.43745L236.796 18.4919Z" fill="#1E1E1C"/>
<path d="M255.504 1.24316H261.936V21.9417H273.623V28.0806H255.531L255.504 1.24316Z" fill="#1E1E1C"/>
<path d="M128.742 38.0133H139.471C140.932 37.9925 142.383 38.2602 143.741 38.8011C144.962 39.2943 146.072 40.027 147.006 40.956C147.917 41.8594 148.632 42.9414 149.105 44.1342C150.082 46.6221 150.082 49.3878 149.105 51.8757C148.628 53.0711 147.925 54.1626 147.033 55.0901C146.097 56.0342 144.984 56.7848 143.759 57.2993C142.388 57.8628 140.917 58.143 139.435 58.1233H135.174V64.8508H128.742V38.0133ZM135.174 43.8173V52.1655H139.145C139.695 52.1828 140.242 52.0909 140.756 51.895C141.27 51.6992 141.74 51.4034 142.139 51.0246C142.539 50.6343 142.852 50.164 143.058 49.6445C143.263 49.1249 143.357 48.5678 143.334 48.0095C143.355 47.4486 143.261 46.8894 143.055 46.3672C142.85 45.845 142.538 45.3713 142.139 44.9762C141.743 44.593 141.274 44.293 140.759 44.0939C140.245 43.8949 139.696 43.8008 139.145 43.8173H135.174Z" fill="#1E1E1C"/>
<path d="M153.32 38.0132H164.863C166.332 37.9864 167.792 38.2351 169.169 38.7466C170.346 39.1896 171.423 39.8638 172.335 40.7295C173.182 41.5565 173.845 42.5531 174.28 43.6541C174.727 44.8086 174.951 46.0377 174.94 47.2759C174.961 48.9012 174.563 50.5043 173.783 51.9299C173.041 53.2863 171.939 54.4112 170.598 55.1804L175.601 64.8868H168.545L164.755 56.8374H159.716V64.8868H153.32V38.0132ZM159.716 43.8533V50.9882H164.384C164.934 51.0337 165.488 50.9637 166.01 50.7829C166.531 50.602 167.01 50.3142 167.414 49.9379C168.061 49.2472 168.411 48.3307 168.391 47.3846C168.417 46.9071 168.342 46.4294 168.171 45.9831C167.999 45.5367 167.735 45.1318 167.396 44.795C166.544 44.1188 165.467 43.7948 164.384 43.8895L159.716 43.8533Z" fill="#1E1E1C"/>
<path d="M191.393 65.2219C189.549 65.2354 187.722 64.8654 186.028 64.1354C183.543 63.0835 181.424 61.3181 179.939 59.0621C178.455 56.806 177.672 54.1604 177.688 51.4591C177.673 49.616 178.033 47.7892 178.746 46.0898C179.437 44.4592 180.432 42.975 181.677 41.7165C182.923 40.4581 184.401 39.4527 186.028 38.7557C187.728 38.0388 189.553 37.6694 191.397 37.6694C193.241 37.6694 195.067 38.0388 196.766 38.7557C198.397 39.457 199.879 40.4617 201.135 41.7165C202.389 42.9698 203.388 44.4551 204.075 46.0898C204.795 47.7876 205.158 49.6151 205.143 51.4591C205.153 53.2688 204.805 55.0627 204.121 56.7377C203.436 58.4127 202.428 59.9359 201.153 61.2198C199.902 62.4678 198.426 63.4664 196.802 64.1625C195.091 64.8851 193.25 65.2458 191.393 65.2219V65.2219ZM191.393 58.8838C192.397 58.8981 193.394 58.6974 194.315 58.2952C195.19 57.9206 195.978 57.3688 196.63 56.6745C197.282 55.9883 197.8 55.187 198.159 54.3113C198.533 53.3947 198.72 52.4128 198.711 51.4229C198.729 49.4507 197.976 47.5496 196.612 46.126C195.948 45.4381 195.155 44.8874 194.278 44.5053C193.367 44.117 192.387 43.9169 191.397 43.9169C190.407 43.9169 189.427 44.117 188.516 44.5053C187.645 44.8788 186.863 45.431 186.218 46.126C185.573 46.8237 185.061 47.6339 184.708 48.5164C184.335 49.4396 184.147 50.4272 184.156 51.4229C184.149 52.4109 184.33 53.391 184.69 54.3113C185.032 55.1893 185.542 55.992 186.191 56.6745C186.842 57.3624 187.623 57.9134 188.489 58.2952C189.403 58.6996 190.393 58.9034 191.393 58.8928V58.8838Z" fill="#1E1E1C"/>
<path d="M209.043 38.0131H218.569C220.517 37.9888 222.451 38.3392 224.268 39.0454C225.911 39.68 227.41 40.6409 228.673 41.8703C229.904 43.0747 230.875 44.5203 231.523 46.1169C232.21 47.8034 232.555 49.6104 232.536 51.4319C232.549 53.2622 232.192 55.0762 231.486 56.7649C230.822 58.3596 229.844 59.8039 228.61 61.0115C227.342 62.2218 225.852 63.175 224.222 63.8184C222.461 64.5163 220.581 64.8668 218.686 64.8506H209.043V38.0131ZM215.439 43.971V58.8565H218.379C219.467 58.8723 220.548 58.6786 221.563 58.2861C222.47 57.9283 223.295 57.3892 223.987 56.7016C224.662 56.0304 225.189 55.2254 225.534 54.3383C225.891 53.4113 226.072 52.4255 226.068 51.4319C226.076 50.4277 225.902 49.4304 225.552 48.4892C225.218 47.6024 224.703 46.7946 224.041 46.1169C223.347 45.4251 222.515 44.8881 221.599 44.5414C220.535 44.1438 219.406 43.9503 218.27 43.971H215.439Z" fill="#1E1E1C"/>
<path d="M246.999 65.2219C245.459 65.2429 243.928 64.9916 242.476 64.4794C241.2 64.0278 240.039 63.3015 239.075 62.3516C238.122 61.3749 237.386 60.2088 236.913 58.929C236.372 57.4474 236.109 55.8791 236.135 54.3022V38.0042H242.648V54.3022C242.562 55.5602 242.979 56.8008 243.806 57.7519C244.214 58.1646 244.704 58.486 245.245 58.6951C245.786 58.9043 246.365 58.9963 246.945 58.9652C247.527 58.9901 248.109 58.8953 248.653 58.6866C249.198 58.4779 249.694 58.1598 250.111 57.7519C250.534 57.2881 250.86 56.7434 251.068 56.1507C251.276 55.5579 251.363 54.9292 251.323 54.3022V38.0042H257.827V54.3022C257.852 55.8782 257.591 57.4457 257.058 58.929C256.585 60.2111 255.845 61.3778 254.887 62.3516C253.919 63.3056 252.751 64.0324 251.468 64.4794C250.033 64.9853 248.52 65.2366 246.999 65.2219V65.2219Z" fill="#1E1E1C"/>
<path d="M275.296 65.222C273.37 65.2468 271.458 64.8771 269.679 64.1355C268.05 63.4549 266.573 62.4543 265.337 61.1928C264.129 59.9314 263.18 58.4457 262.542 56.8195C261.871 55.0879 261.536 53.244 261.556 51.3868C261.541 49.5259 261.891 47.6801 262.587 45.9541C263.242 44.3205 264.222 42.8366 265.465 41.5917C266.709 40.3469 268.192 39.3668 269.824 38.7106C272.754 37.5431 275.981 37.3432 279.033 38.1401C280.184 38.4495 281.293 38.8995 282.334 39.4802C283.356 40.0513 284.297 40.7579 285.13 41.5808C285.957 42.3889 286.675 43.3021 287.264 44.2972L281.638 47.8646C281.071 46.7103 280.21 45.7264 279.141 45.0125C278.014 44.2922 276.697 43.9263 275.36 43.9622C273.905 43.9377 272.479 44.3652 271.277 45.1856C270.075 46.0061 269.156 47.1793 268.648 48.5437C268.29 49.477 268.109 50.4688 268.114 51.4683C268.106 52.4547 268.281 53.4341 268.63 54.3567C268.96 55.2288 269.462 56.0261 270.104 56.7018C270.739 57.3823 271.506 57.9275 272.357 58.3044C273.278 58.705 274.274 58.9056 275.278 58.893C276.726 58.948 278.15 58.5143 279.322 57.6616C280.401 56.8437 281.251 55.7617 281.792 54.5197L287.708 57.6797C287.143 58.7836 286.438 59.8093 285.609 60.731C284.784 61.6574 283.838 62.4676 282.796 63.1395C281.725 63.8255 280.561 64.3531 279.34 64.7059C278.023 65.0673 276.662 65.2411 275.296 65.222V65.222Z" fill="#1E1E1C"/>
<path d="M297.36 43.9257H290.078V38.0132H310.812V43.9257H303.575V64.8506H297.36V43.9257Z" fill="#1E1E1C"/>
<path d="M138.592 101.983C137.239 101.998 135.888 101.861 134.566 101.576C133.446 101.329 132.359 100.952 131.328 100.453C130.39 100 129.514 99.4279 128.722 98.7506C127.961 98.0958 127.253 97.3813 126.605 96.6137L132.124 92.2042C132.833 93.333 133.789 94.2864 134.919 94.993C136.096 95.6856 137.444 96.0309 138.809 95.989C139.699 96.0505 140.583 95.8044 141.314 95.2918C141.586 95.0763 141.803 94.8004 141.949 94.486C142.095 94.1716 142.166 93.8274 142.156 93.4809C142.17 93.087 142.056 92.6992 141.83 92.3762C141.551 92.0429 141.198 91.7794 140.799 91.6066C140.242 91.3544 139.663 91.1514 139.071 91C138.383 90.8189 137.56 90.6106 136.601 90.3933C135.595 90.158 134.602 89.8709 133.625 89.5331C132.656 89.2245 131.74 88.7663 130.911 88.175C130.091 87.5938 129.411 86.8358 128.921 85.9566C128.373 84.9017 128.108 83.7223 128.152 82.534C128.142 81.4026 128.393 80.2841 128.885 79.2654C129.375 78.2635 130.064 77.3729 130.911 76.6486C131.823 75.8846 132.869 75.298 133.996 74.9192C135.277 74.4977 136.619 74.2897 137.967 74.3035C139.091 74.2925 140.212 74.3957 141.314 74.6114C142.271 74.7981 143.2 75.1023 144.082 75.5168C144.938 75.9222 145.742 76.4267 146.48 77.0199C147.255 77.6455 147.983 78.3263 148.66 79.0571L143.522 83.0683C142.938 82.1194 142.143 81.3196 141.197 80.7322C140.171 80.1482 139.002 79.8628 137.823 79.9082C136.948 79.8335 136.077 80.0959 135.389 80.6417C135.151 80.8477 134.96 81.102 134.827 81.3876C134.695 81.6732 134.624 81.9837 134.62 82.2986C134.612 82.4867 134.643 82.6744 134.71 82.8503C134.776 83.0262 134.878 83.1866 135.009 83.3218C135.321 83.6292 135.698 83.8614 136.113 84.0009C136.674 84.2181 137.252 84.3907 137.841 84.517L140.066 85.0512C141.07 85.2775 142.083 85.5492 143.115 85.8751C144.117 86.2008 145.065 86.6738 145.928 87.2786C146.778 87.8844 147.485 88.6694 147.999 89.5784C148.581 90.6714 148.862 91.8994 148.814 93.1368C148.826 94.352 148.56 95.5537 148.036 96.65C147.525 97.7126 146.801 98.6587 145.91 99.4297C144.95 100.226 143.852 100.84 142.671 101.241C141.364 101.721 139.984 101.972 138.592 101.983Z" fill="#1E1E1C"/>
<path d="M165.188 101.983C163.258 102.009 161.343 101.639 159.561 100.897C157.933 100.218 156.459 99.2173 155.228 97.9539C154.011 96.7002 153.06 95.2125 152.433 93.5806C151.764 91.864 151.426 90.0359 151.438 88.1932C151.425 86.3324 151.775 84.487 152.469 82.7606C153.128 81.1291 154.109 79.647 155.352 78.4026C156.595 77.1582 158.076 76.1768 159.706 75.517C162.639 74.3618 165.862 74.1622 168.915 74.9466C170.069 75.2605 171.181 75.7136 172.226 76.2957C173.249 76.8604 174.19 77.5643 175.021 78.3873C175.841 79.202 176.558 80.1142 177.156 81.1036L171.529 84.6711C170.956 83.5206 170.092 82.5404 169.023 81.828C167.896 81.1076 166.579 80.7418 165.242 80.7776C164.232 80.7662 163.23 80.9667 162.302 81.3662C161.443 81.7426 160.668 82.2875 160.023 82.9688C159.374 83.6574 158.867 84.4664 158.53 85.3501C158.174 86.284 157.993 87.2754 157.996 88.2747C157.988 89.2611 158.163 90.2405 158.512 91.1631C158.843 92.0379 159.344 92.8381 159.986 93.5173C160.63 94.1923 161.398 94.7365 162.248 95.1199C163.17 95.5182 164.166 95.7157 165.17 95.6994C166.617 95.7544 168.042 95.3207 169.213 94.468C170.292 93.6516 171.139 92.5689 171.674 91.3261L177.59 94.4861C177.029 95.5926 176.327 96.6213 175.5 97.5465C174.669 98.4658 173.723 99.2752 172.687 99.955C171.615 100.636 170.452 101.161 169.231 101.512C167.913 101.862 166.551 102.021 165.188 101.983V101.983Z" fill="#1E1E1C"/>
<path d="M195.889 91.2807H187.105V101.612H180.664V74.7744H187.096V85.006H195.88V74.7744H202.311V101.612H195.88L195.889 91.2807Z" fill="#1E1E1C"/>
<path d="M219.936 101.983C218.092 101.996 216.265 101.626 214.571 100.896C212.945 100.2 211.465 99.2018 210.211 97.9537C208.962 96.7005 207.969 95.2149 207.289 93.5804C205.878 90.134 205.878 86.2701 207.289 82.8237C208.671 79.524 211.283 76.8932 214.571 75.4896C216.27 74.7784 218.094 74.4121 219.936 74.4121C221.777 74.4121 223.601 74.7784 225.3 75.4896C226.933 76.1909 228.419 77.1955 229.678 78.4504C230.929 79.7061 231.927 81.1908 232.618 82.8237C233.681 85.352 233.971 88.1392 233.451 90.8325C232.931 93.5258 231.624 96.0041 229.696 97.9537C228.442 99.2018 226.962 100.2 225.336 100.896C223.631 101.629 221.791 101.999 219.936 101.983V101.983ZM219.936 95.6448C220.941 95.6543 221.937 95.4507 222.857 95.0472C223.731 94.6737 224.519 94.1252 225.173 93.4355C226.522 92.0181 227.268 90.1321 227.254 88.1749C227.256 87.1798 227.069 86.1933 226.702 85.2684C226.345 84.3822 225.819 83.5735 225.155 82.8871C224.122 81.8224 222.791 81.0971 221.337 80.8077C219.882 80.5182 218.375 80.6782 217.014 81.2663C216.142 81.6389 215.36 82.1912 214.716 82.8871C213.728 83.9682 213.062 85.3043 212.794 86.7444C212.525 88.1846 212.665 89.6712 213.196 91.0361C213.538 91.9168 214.048 92.7225 214.698 93.4084C215.368 94.1129 216.175 94.6724 217.07 95.0524C217.965 95.4324 218.928 95.6248 219.899 95.6177L219.936 95.6448Z" fill="#1E1E1C"/>
<path d="M250.186 101.983C248.342 101.997 246.515 101.627 244.821 100.897C243.197 100.203 241.72 99.2037 240.47 97.9538C239.217 96.7014 238.222 95.2157 237.539 93.5805C236.128 90.1341 236.128 86.2702 237.539 82.8238C238.23 81.1932 239.225 79.709 240.47 78.4505C241.716 77.1921 243.194 76.1867 244.821 75.4897C246.522 74.7787 248.347 74.4126 250.19 74.4126C252.033 74.4126 253.858 74.7787 255.559 75.4897C257.189 76.191 258.672 77.1957 259.928 78.4505C261.182 79.7037 262.181 81.1891 262.868 82.8238C263.931 85.3521 264.221 88.1393 263.701 90.8327C263.181 93.526 261.874 96.0042 259.946 97.9538C258.694 99.2039 257.214 100.203 255.586 100.897C253.881 101.629 252.041 101.999 250.186 101.983ZM250.186 95.6449C251.191 95.6553 252.187 95.4516 253.107 95.0473C253.982 94.6761 254.771 94.1273 255.423 93.4356C256.075 92.7463 256.593 91.9419 256.952 91.0634C257.326 90.1468 257.513 89.1649 257.504 88.175C257.511 87.1795 257.323 86.1922 256.952 85.2685C256.595 84.3823 256.069 83.5737 255.405 82.8872C254.372 81.8225 253.041 81.0972 251.587 80.8078C250.132 80.5183 248.625 80.6783 247.264 81.2664C246.395 81.6392 245.615 82.1915 244.975 82.8872C243.639 84.3219 242.901 86.2136 242.912 88.175C242.906 89.1629 243.087 90.1431 243.446 91.0634C243.788 91.9441 244.298 92.7498 244.948 93.4356C245.599 94.1209 246.38 94.6688 247.246 95.0473C248.17 95.4628 249.173 95.6728 250.186 95.663V95.6449Z" fill="#1E1E1C"/>
<path d="M267.832 74.7744H274.264V95.4729H285.951V101.612H267.859L267.832 74.7744Z" fill="#1E1E1C"/>
</svg>
