<svg width="78" height="43" viewBox="0 0 78 43" fill="none" xmlns="http://www.w3.org/2000/svg">
<path d="M25.6877 0V13.4215H22.2934L16.5288 4.98115V13.4215H13.1754V0H16.8301L22.3518 8.05312V0H25.6877ZM37.6069 0V2.96085H33.8576V13.4215H30.6058V2.96085H26.8192V0H37.6069ZM48.8617 0V2.97769H42.2342V5.1843H48.8571V8.16312H42.2342V10.4427H48.8571V13.4215H38.7395V0H48.8617ZM59.625 8.57279C60.348 8.19313 60.9489 7.63026 61.3624 6.94533C61.7878 6.23884 62.0065 5.43487 61.9953 4.61862C62.0002 4.00281 61.8772 3.39226 61.6333 2.8228C61.3939 2.26758 61.0308 1.76953 60.5696 1.3637C60.0664 0.927545 59.4793 0.590118 58.8415 0.370387C58.0874 0.114345 57.2918 -0.00995277 56.4922 0.00336745H50.187V13.4215H53.6817V9.39549H56.4327L58.5017 13.4215H62.3549L59.625 8.57279ZM57.8875 5.97109C57.5326 6.32053 56.9803 6.49487 56.2307 6.49413H53.6805V2.92269H56.2307C56.9678 2.92269 57.517 3.07908 57.8782 3.39185C58.2394 3.70462 58.42 4.13674 58.42 4.68821C58.4251 4.92475 58.3806 5.15986 58.2891 5.37951C58.1976 5.59915 58.0611 5.79882 57.8875 5.9666V5.97109ZM12.5133 14.6988V28.1169H9.11902L3.35559 19.6777V28.1169H0.000979567V14.6943H3.65684L9.17974 22.7485V14.6943L12.5133 14.6988ZM23.9561 14.6988V17.6776H17.331V19.8842H23.9585V22.863H17.331V25.1426H23.9585V28.1214H13.8374V14.6943L23.9561 14.6988ZM37.1095 14.6988V28.1169H33.5949V22.9539H28.7983V28.1169H25.2837V14.6943H28.7983V19.7877H33.5984V14.6943L37.1095 14.6988ZM52.9951 14.6988V28.1169H49.5845V19.6036L45.7044 24.3659L41.8688 19.6227V28.1169H38.4371V14.6943H41.7719L45.7278 19.7147L49.8052 14.6943L52.9951 14.6988ZM64.4379 14.6988V17.6776H57.8175V19.8842H64.4449V22.863H57.8175V25.1426H64.4449V28.1214H54.3227V14.6943L64.4379 14.6988ZM75.2701 23.2671C75.9931 22.8874 76.594 22.3245 77.0075 21.6396C77.4326 20.9334 77.6509 20.1298 77.6392 19.314C77.6439 18.6983 77.5212 18.0879 77.2784 17.5182C77.0378 16.9633 76.6744 16.4654 76.2135 16.0591C75.7112 15.6223 75.1244 15.2848 74.4866 15.0658C73.7323 14.8088 72.9362 14.6841 72.1361 14.6976H65.8309V28.1169H69.3257V24.0898H72.0778L74.1468 28.1169H78L75.2701 23.2671ZM73.5396 20.6609C73.1847 21.0103 72.6324 21.185 71.8828 21.185H69.3315V17.6181H71.8828C72.6184 17.6181 73.1672 17.7745 73.5291 18.0873C73.8911 18.4 74.074 18.8321 74.0779 19.3836C74.0823 19.6204 74.0369 19.8556 73.9444 20.0751C73.8519 20.2946 73.7142 20.4938 73.5396 20.6609ZM10.7922 29.3897V32.3494H7.04064V42.8123H3.78644V32.3494H0.000979567V29.3897H10.7922ZM20.4906 42.6338C18.8954 43.1221 17.1818 43.1221 15.5865 42.6338C14.8947 42.4111 14.261 42.0474 13.7288 41.5676C13.2092 41.0869 12.8048 40.5032 12.5437 39.8571C12.2459 39.1153 12.1 38.3253 12.114 37.5303V29.3897H15.6683V37.5303C15.6683 38.2786 15.8792 38.8548 16.3011 39.2588C16.723 39.6629 17.2956 39.8653 18.0187 39.866C18.7279 39.866 19.3035 39.6636 19.7456 39.2588C20.1878 38.854 20.4085 38.2779 20.4077 37.5303V29.3897H23.9631V37.5303C23.978 38.3214 23.835 39.1078 23.5416 39.847C23.2798 40.4951 22.8737 41.0805 22.3518 41.562C21.8169 42.0434 21.1794 42.4073 20.4836 42.6282L20.4906 42.6338ZM39.8453 29.3897V42.8123H36.4311V34.299L32.5546 39.0613L28.7189 34.317V42.8123H25.2837V29.3897H28.6185L32.5744 34.409L36.6518 29.3897H39.8453ZM3.55292 8.14516V0H0.000979567V8.14516C-0.0133533 8.93612 0.129719 9.72243 0.422495 10.4618C0.684369 11.1072 1.0887 11.6904 1.60764 12.1712C2.14279 12.6526 2.78017 13.0167 3.47585 13.2385C4.2662 13.4914 5.09497 13.6154 5.92788 13.6056V10.4808C5.2273 10.4764 4.65828 10.2743 4.2208 9.87475C3.78333 9.47518 3.5607 8.89865 3.55292 8.14516ZM11.8431 0H8.29584V7.68386H11.8513L11.8431 0ZM11.4216 10.4943C11.1599 9.84845 10.7556 9.26486 10.2364 8.78379C9.70154 8.30231 9.06406 7.93848 8.36823 7.71753C7.57806 7.46386 6.74921 7.33942 5.9162 7.34938V10.4808C6.61678 10.4808 7.1862 10.6829 7.62445 11.0869C8.0627 11.491 8.28339 12.0671 8.2865 12.8154V13.426H11.8431V12.8154C11.8612 12.0235 11.7213 11.2356 11.4309 10.4943H11.4216Z" fill="black"/>
</svg>
