<?xml version="1.0" encoding="UTF-8"?><svg id="Ebene_2" xmlns="http://www.w3.org/2000/svg" viewBox="0 0 443.71 539.29"><defs><style>.cls-1{fill:#009fe3;}.cls-2{fill:#fff;}.cls-3{fill:#fd0;}.cls-4{fill:#d4edfc;}.cls-5{fill:#e30613;}.cls-6{fill:#1d1d1b;}.cls-7{fill:#a1daf8;}</style></defs><g id="Ebene_1-2"><g><polygon class="cls-1" points="382.45 0 382.45 58.86 323.59 58.86 323.59 0 0 0 0 443.71 443.71 443.71 443.71 0 382.45 0"/><rect class="cls-4" x="264.73" y="58.86" width="58.86" height="58.43"/><rect class="cls-3" x="323.59" y="176.15" width="58.86" height="58.86"/><rect class="cls-5" x="205.88" y="117.29" width="58.86" height="58.86"/><rect class="cls-7" x="205.88" y="0" width="58.86" height="58.86"/><rect class="cls-2" x="323.59" y="0" width="58.86" height="58.86"/><g><path class="cls-6" d="M.17,496.83v-24.52H10.02c2.55,0,4.49,.59,5.83,1.77,1.34,1.18,2.01,2.69,2.01,4.54,0,1.54-.42,2.77-1.24,3.69-.83,.92-1.84,1.55-3.03,1.87,1.4,.28,2.56,.98,3.47,2.08,.91,1.11,1.37,2.4,1.37,3.87,0,1.94-.7,3.54-2.1,4.8-1.4,1.26-3.39,1.89-5.95,1.89H.17Zm4.48-14.22h4.69c1.26,0,2.23-.29,2.91-.88s1.02-1.41,1.02-2.49-.33-1.84-1-2.43c-.66-.6-1.66-.89-3-.89H4.66v6.69Zm0,10.58h5.01c1.33,0,2.36-.31,3.1-.93,.74-.62,1.1-1.49,1.1-2.61s-.39-2.04-1.16-2.7c-.77-.65-1.81-.98-3.12-.98H4.66v7.21Z"/><path class="cls-6" d="M24.52,496.83l8.97-24.52h5.04l8.97,24.52h-4.76l-1.96-5.68h-9.56l-2,5.68h-4.69Zm7.92-9.18h7.11l-3.57-10.19-3.54,10.19Z"/><path class="cls-6" d="M58.18,496.83v-8.72l-8.23-15.8h5.08l5.43,11.31,5.4-11.31h5.01l-8.2,15.8v8.72h-4.48Z"/><path class="cls-6" d="M77.76,496.83v-24.52h16.01v3.61h-11.52v6.72h10.47v3.5h-10.47v7.08h11.52v3.61h-16.01Z"/><path class="cls-6" d="M102.04,496.83v-24.52h9c1.96,0,3.58,.33,4.85,1,1.27,.66,2.22,1.56,2.86,2.7,.63,1.13,.95,2.39,.95,3.77,0,1.49-.39,2.86-1.17,4.1-.78,1.24-2,2.14-3.66,2.7l5.08,10.27h-5.15l-4.55-9.67h-3.71v9.67h-4.48Zm4.48-12.96h4.24c1.49,0,2.59-.36,3.29-1.08,.7-.72,1.05-1.68,1.05-2.87s-.34-2.1-1.03-2.8c-.69-.7-1.8-1.05-3.35-1.05h-4.2v7.81Z"/><path class="cls-6" d="M127.89,496.83v-24.52h4.48v24.52h-4.48Z"/><path class="cls-6" d="M149.54,497.25c-1.8,0-3.39-.31-4.76-.93-1.38-.62-2.46-1.51-3.26-2.66-.79-1.16-1.2-2.56-1.23-4.22h4.73c.05,1.14,.46,2.11,1.24,2.89,.78,.78,1.86,1.17,3.24,1.17,1.19,0,2.14-.29,2.84-.86,.7-.57,1.05-1.34,1.05-2.29,0-1.01-.31-1.79-.93-2.35-.62-.56-1.44-1.02-2.47-1.37-1.03-.35-2.13-.72-3.29-1.12-1.89-.65-3.33-1.49-4.33-2.52-.99-1.03-1.49-2.39-1.49-4.1-.02-1.45,.32-2.69,1.03-3.73s1.69-1.84,2.93-2.42c1.24-.57,2.66-.86,4.27-.86s3.08,.29,4.33,.87c1.25,.59,2.23,1.4,2.94,2.45,.71,1.05,1.09,2.3,1.14,3.75h-4.8c-.02-.86-.36-1.63-1-2.29-.64-.66-1.54-1-2.68-1-.98-.02-1.8,.22-2.47,.72-.67,.5-1,1.23-1,2.19,0,.82,.26,1.47,.77,1.94,.51,.48,1.22,.88,2.1,1.21,.89,.33,1.9,.68,3.05,1.05,1.22,.42,2.32,.91,3.33,1.47s1.81,1.3,2.42,2.22c.61,.92,.91,2.11,.91,3.56,0,1.28-.33,2.48-.98,3.57-.65,1.1-1.62,1.98-2.91,2.65-1.28,.66-2.86,1-4.73,1Z"/><path class="cls-6" d="M177.21,497.25c-2.48,0-4.6-.53-6.38-1.59s-3.14-2.55-4.1-4.45-1.44-4.1-1.44-6.6,.48-4.71,1.44-6.62c.96-1.91,2.32-3.41,4.1-4.48,1.77-1.07,3.9-1.61,6.38-1.61,2.94,0,5.35,.73,7.23,2.19,1.88,1.46,3.05,3.51,3.52,6.15h-4.94c-.3-1.33-.95-2.38-1.94-3.14-.99-.76-2.31-1.14-3.94-1.14-2.27,0-4.04,.77-5.32,2.31-1.28,1.54-1.93,3.65-1.93,6.34s.64,4.8,1.93,6.32,3.06,2.29,5.32,2.29c1.63,0,2.95-.36,3.94-1.07,.99-.71,1.64-1.7,1.94-2.96h4.94c-.47,2.52-1.64,4.5-3.52,5.92-1.88,1.42-4.29,2.14-7.23,2.14Z"/><path class="cls-6" d="M195.95,496.83v-24.52h4.48v10.19h11v-10.19h4.48v24.52h-4.48v-10.69h-11v10.69h-4.48Z"/><path class="cls-6" d="M224.71,496.83v-24.52h16.01v3.61h-11.52v6.72h10.47v3.5h-10.47v7.08h11.52v3.61h-16.01Z"/><path class="cls-6" d="M259.77,496.83l8.97-24.52h5.04l8.97,24.52h-4.76l-1.96-5.68h-9.56l-2,5.68h-4.69Zm7.92-9.18h7.11l-3.57-10.19-3.54,10.19Z"/><path class="cls-6" d="M299.25,497.25c-2.31,0-4.33-.53-6.06-1.58-1.73-1.05-3.07-2.51-4.03-4.39-.96-1.88-1.44-4.07-1.44-6.57s.5-4.75,1.49-6.67c.99-1.93,2.41-3.43,4.24-4.52s4.01-1.63,6.53-1.63c2.87,0,5.25,.69,7.15,2.07,1.89,1.38,3.12,3.28,3.68,5.71h-5.01c-.37-1.14-1.05-2.04-2.03-2.68s-2.24-.96-3.78-.96c-2.45,0-4.35,.78-5.68,2.33-1.33,1.56-2,3.69-2,6.39s.66,4.81,1.98,6.29c1.32,1.48,3.11,2.22,5.38,2.22s3.89-.6,5.03-1.8,1.81-2.78,2.05-4.75h-6.2v-3.36h10.72v13.49h-4.13l-.35-3.23c-.79,1.17-1.79,2.07-2.98,2.7-1.19,.63-2.71,.95-4.55,.95Z"/><path class="cls-6" d="M319.64,496.83v-24.52h16.01v3.61h-11.52v6.72h10.47v3.5h-10.47v7.08h11.52v3.61h-16.01Z"/><path class="cls-6" d="M343.91,496.83v-24.52h4.48l11.52,17.27v-17.27h4.48v24.52h-4.48l-11.52-17.23v17.23h-4.48Z"/><path class="cls-6" d="M378.91,496.83v-20.91h-7.15v-3.61h18.81v3.61h-7.18v20.91h-4.48Z"/><path class="cls-6" d="M407.39,497.25c-1.8,0-3.42-.36-4.87-1.07-1.45-.71-2.6-1.79-3.45-3.24-.85-1.45-1.28-3.28-1.28-5.5v-15.13h4.48v15.16c0,1.92,.46,3.34,1.38,4.27,.92,.93,2.2,1.4,3.84,1.4s2.89-.47,3.82-1.4,1.4-2.36,1.4-4.27v-15.16h4.48v15.13c0,2.22-.44,4.05-1.33,5.5-.89,1.45-2.07,2.53-3.56,3.24-1.48,.71-3.12,1.07-4.92,1.07Z"/><path class="cls-6" d="M425.81,496.83v-24.52h9c1.96,0,3.58,.33,4.85,1s2.23,1.56,2.86,2.7c.63,1.13,.95,2.39,.95,3.77,0,1.49-.39,2.86-1.17,4.1-.78,1.24-2,2.14-3.66,2.7l5.08,10.27h-5.15l-4.55-9.67h-3.71v9.67h-4.48Zm4.48-12.96h4.24c1.49,0,2.59-.36,3.29-1.08,.7-.72,1.05-1.68,1.05-2.87s-.34-2.1-1.03-2.8-1.8-1.05-3.35-1.05h-4.2v7.81Z"/><path class="cls-6" d="M.17,538.86v-24.52h15.83v3.61H4.66v6.87H13.84v3.54H4.66v10.51H.17Z"/><path class="cls-6" d="M32.96,539.29c-1.8,0-3.42-.36-4.87-1.07-1.45-.71-2.6-1.79-3.45-3.24-.85-1.45-1.28-3.28-1.28-5.5v-15.13h4.48v15.17c0,1.91,.46,3.34,1.38,4.27,.92,.93,2.2,1.4,3.84,1.4s2.88-.47,3.82-1.4c.93-.93,1.4-2.36,1.4-4.27v-15.17h4.48v15.13c0,2.22-.44,4.05-1.33,5.5-.89,1.45-2.07,2.53-3.56,3.24-1.48,.71-3.12,1.07-4.92,1.07Zm-3.08-27.32c-.61,0-1.12-.21-1.54-.63-.42-.42-.63-.93-.63-1.54s.21-1.12,.63-1.54c.42-.42,.93-.63,1.54-.63s1.12,.21,1.54,.63c.42,.42,.63,.93,.63,1.54s-.21,1.12-.63,1.54c-.42,.42-.93,.63-1.54,.63Zm6.3,0c-.61,0-1.12-.21-1.54-.63-.42-.42-.63-.93-.63-1.54s.21-1.12,.63-1.54c.42-.42,.93-.63,1.54-.63s1.12,.21,1.54,.63c.42,.42,.63,.93,.63,1.54s-.21,1.12-.63,1.54c-.42,.42-.93,.63-1.54,.63Z"/><path class="cls-6" d="M51.39,538.86v-24.52h9c1.96,0,3.58,.33,4.85,1,1.27,.67,2.22,1.57,2.86,2.7,.63,1.13,.95,2.39,.95,3.77,0,1.5-.39,2.86-1.17,4.1-.78,1.24-2,2.14-3.66,2.7l5.08,10.26h-5.15l-4.55-9.67h-3.71v9.67h-4.48Zm4.48-12.96h4.24c1.49,0,2.59-.37,3.29-1.09,.7-.72,1.05-1.68,1.05-2.87s-.34-2.1-1.03-2.8c-.69-.7-1.8-1.05-3.35-1.05h-4.2v7.81Z"/><path class="cls-6" d="M89.6,538.86v-24.52h8.37c2.87,0,5.24,.51,7.09,1.53,1.86,1.01,3.23,2.44,4.13,4.27,.9,1.83,1.35,3.99,1.35,6.46s-.45,4.63-1.35,6.46c-.9,1.84-2.28,3.26-4.13,4.27s-4.22,1.52-7.09,1.52h-8.37Zm4.48-3.85h3.68c2.05,0,3.68-.33,4.87-1,1.19-.66,2.04-1.62,2.56-2.87,.51-1.25,.77-2.76,.77-4.54s-.26-3.26-.77-4.52c-.51-1.26-1.37-2.23-2.56-2.91-1.19-.68-2.82-1.01-4.87-1.01h-3.68v16.85Z"/><path class="cls-6" d="M118.54,538.86v-24.52h4.48v24.52h-4.48Z"/><path class="cls-6" d="M142.53,539.29c-2.31,0-4.33-.53-6.06-1.58-1.73-1.05-3.07-2.52-4.03-4.4s-1.44-4.07-1.44-6.57,.5-4.75,1.49-6.67c.99-1.92,2.41-3.43,4.24-4.52,1.83-1.08,4.01-1.63,6.53-1.63,2.87,0,5.26,.69,7.15,2.07,1.89,1.38,3.12,3.28,3.68,5.71h-5.01c-.37-1.14-1.05-2.04-2.03-2.68-.98-.64-2.24-.96-3.78-.96-2.45,0-4.34,.78-5.67,2.33-1.33,1.55-2,3.68-2,6.39s.66,4.81,1.98,6.29c1.32,1.48,3.11,2.23,5.38,2.23s3.89-.6,5.03-1.8c1.13-1.2,1.82-2.79,2.05-4.75h-6.2v-3.36h10.72v13.49h-4.13l-.35-3.22c-.79,1.17-1.79,2.07-2.98,2.7-1.19,.63-2.71,.95-4.55,.95Z"/><path class="cls-6" d="M162.92,538.86v-24.52h4.48v24.52h-4.48Z"/><path class="cls-6" d="M181.9,538.86v-20.91h-7.15v-3.61h18.81v3.61h-7.18v20.91h-4.48Z"/><path class="cls-6" d="M196.76,538.86l8.97-24.52h5.04l8.97,24.52h-4.76l-1.96-5.67h-9.56l-2,5.67h-4.69Zm7.92-9.18h7.11l-3.57-10.19-3.54,10.19Z"/><path class="cls-6" d="M226.92,538.86v-24.52h4.48v21.02h10.86v3.5h-15.34Z"/><path class="cls-6" d="M250.25,538.86v-24.52h16.01v3.61h-11.52v6.73h10.47v3.5h-10.47v7.08h11.52v3.61h-16.01Z"/><path class="cls-6" d="M282.89,539.29c-1.8,0-3.38-.31-4.76-.93-1.38-.62-2.46-1.51-3.26-2.66-.79-1.16-1.2-2.56-1.23-4.22h4.73c.05,1.14,.46,2.11,1.24,2.89,.78,.78,1.86,1.17,3.24,1.17,1.19,0,2.14-.29,2.84-.86s1.05-1.33,1.05-2.29-.31-1.79-.93-2.35-1.44-1.01-2.47-1.36-2.13-.72-3.29-1.12c-1.89-.65-3.33-1.5-4.33-2.52-.99-1.03-1.49-2.39-1.49-4.1-.02-1.45,.32-2.69,1.03-3.73,.71-1.04,1.69-1.84,2.93-2.42s2.66-.86,4.27-.86,3.08,.29,4.33,.88c1.25,.58,2.23,1.4,2.94,2.45,.71,1.05,1.09,2.3,1.14,3.75h-4.8c-.02-.86-.36-1.63-1-2.29-.64-.66-1.54-1-2.68-1-.98-.02-1.8,.22-2.47,.72s-1,1.23-1,2.19c0,.82,.26,1.47,.77,1.95,.51,.48,1.22,.88,2.1,1.21,.89,.33,1.9,.68,3.05,1.05,1.22,.42,2.32,.91,3.33,1.47,1,.56,1.81,1.3,2.42,2.23s.91,2.11,.91,3.56c0,1.29-.33,2.48-.98,3.57-.65,1.1-1.62,1.98-2.91,2.64-1.29,.66-2.86,1-4.73,1Z"/></g><path class="cls-2" d="M34.77,381.1v-97.95h13.74v24.17h44.78c3.05,0,5.83,.76,8.33,2.29,2.5,1.53,4.49,3.52,5.98,5.98,1.48,2.46,2.22,5.22,2.22,8.27v40.71c0,3.05-.74,5.81-2.22,8.27-1.49,2.46-3.48,4.45-5.98,5.98-2.5,1.53-5.28,2.29-8.33,2.29H34.77Zm16.92-13.74h41.22c.85,0,1.59-.32,2.22-.96,.64-.63,.96-1.38,.96-2.22v-39.95c0-.85-.32-1.59-.96-2.23-.63-.64-1.38-.95-2.22-.95H51.7c-.85,0-1.59,.32-2.23,.95s-.95,1.38-.95,2.23v39.95c0,.85,.32,1.59,.95,2.22,.64,.64,1.38,.96,2.23,.96Z"/><path class="cls-2" d="M157.32,409.34v-13.87h45.16c.85,0,1.59-.32,2.23-.95,.63-.64,.95-1.38,.95-2.23v-11.19h-44.78c-2.97,0-5.73-.74-8.27-2.23-2.54-1.48-4.56-3.5-6.04-6.04-1.49-2.54-2.23-5.3-2.23-8.27v-56.99h13.74v56.61c0,.85,.32,1.59,.95,2.22,.64,.64,1.38,.96,2.23,.96h41.22c.85,0,1.59-.32,2.23-.96,.63-.63,.95-1.38,.95-2.22v-56.61h13.74v85.23c0,3.05-.74,5.83-2.22,8.33-1.49,2.5-3.48,4.49-5.98,5.98-2.5,1.48-5.28,2.23-8.33,2.23h-45.54Z"/><path class="cls-2" d="M262.87,378.8c-2.5-1.53-4.49-3.52-5.98-5.98-1.48-2.46-2.22-5.22-2.22-8.27v-80.53h13.74v23.28h30.28v13.74h-30.28v43.13c0,.85,.32,1.59,.96,2.22,.63,.64,1.38,.96,2.22,.96h27.1v13.74h-27.48c-3.05,0-5.83-.76-8.33-2.29Z"/><path class="cls-2" d="M341.68,378.8c-2.46-1.53-4.45-3.52-5.98-5.98-1.53-2.46-2.29-5.22-2.29-8.27v-40.71c0-3.05,.76-5.81,2.29-8.27s3.52-4.45,5.98-5.98c2.46-1.53,5.22-2.29,8.27-2.29h41.98c3.05,0,5.83,.74,8.33,2.23,2.5,1.49,4.49,3.5,5.98,6.04,1.48,2.54,2.22,5.3,2.22,8.27v27.22h-61.32v13.1c0,.85,.32,1.59,.95,2.22,.64,.64,1.38,.96,2.23,.96h58.14v13.74h-58.52c-3.05,0-5.81-.76-8.27-2.29Zm5.47-40.58h47.45v-13.99c0-.85-.3-1.59-.89-2.23s-1.31-.95-2.16-.95h-41.22c-.85,0-1.59,.32-2.23,.95s-.95,1.38-.95,2.23v13.99Z"/><rect class="cls-6" x="323.59" y="58.86" width="58.86" height="58.43"/></g></g></svg>