<?xml version="1.0" encoding="utf-8"?>
<!-- Generator: Adobe Illustrator 26.0.2, SVG Export Plug-In . SVG Version: 6.00 Build 0)  -->
<svg version="1.1" id="Ebene_1" xmlns="http://www.w3.org/2000/svg" xmlns:xlink="http://www.w3.org/1999/xlink" x="0px" y="0px"
	 viewBox="0 0 455.41 548.6" style="enable-background:new 0 0 455.41 548.6;" xml:space="preserve">
<style type="text/css">
	.st0{fill:#009FE3;}
	.st1{fill:#D4EDFC;}
	.st2{fill:#FFDD00;}
	.st3{fill:#E30613;}
	.st4{fill:#A1DAF8;}
	.st5{fill:#1D1D1B;}
	.st6{fill:#FFFFFF;}
</style>
<g>
	<g>
		<path class="st5" d="M98.76,325.67H57.55c-0.85,0-1.59,0.32-2.23,0.95s-0.95,1.38-0.95,2.23v39.95c0,0.85,0.32,1.59,0.95,2.22
			c0.64,0.64,1.38,0.96,2.23,0.96h41.22c0.85,0,1.59-0.32,2.22-0.96c0.64-0.63,0.96-1.38,0.96-2.22v-39.95
			c0-0.85-0.32-1.59-0.96-2.23C100.36,325.98,99.61,325.67,98.76,325.67z"/>
		<path class="st5" d="M397.4,325.67h-41.22c-0.85,0-1.59,0.32-2.23,0.95c-0.64,0.64-0.95,1.38-0.95,2.23v13.99h47.45v-13.99
			c0-0.85-0.3-1.59-0.89-2.23C398.97,325.98,398.24,325.67,397.4,325.67z"/>
	</g>
	<g>
		<g>
			<g>
				<path class="st5" d="M6.03,501.45v-24.52h9.84c2.55,0,4.49,0.59,5.83,1.77c1.34,1.18,2.01,2.69,2.01,4.54
					c0,1.54-0.42,2.77-1.24,3.69c-0.83,0.92-1.84,1.55-3.03,1.87c1.4,0.28,2.56,0.98,3.47,2.08c0.91,1.11,1.37,2.4,1.37,3.87
					c0,1.94-0.7,3.54-2.1,4.8c-1.4,1.26-3.39,1.89-5.95,1.89H6.03z M10.51,487.23h4.69c1.26,0,2.23-0.29,2.91-0.88
					s1.02-1.41,1.02-2.49c0-1.03-0.33-1.84-1-2.43c-0.66-0.6-1.66-0.89-3-0.89h-4.62V487.23z M10.51,497.8h5.01
					c1.33,0,2.36-0.31,3.1-0.93c0.74-0.62,1.1-1.49,1.1-2.61c0-1.14-0.39-2.04-1.16-2.7c-0.77-0.65-1.81-0.98-3.12-0.98h-4.94V497.8
					z"/>
				<path class="st5" d="M30.37,501.45l8.97-24.52h5.04l8.97,24.52h-4.76l-1.96-5.68h-9.56l-2,5.68H30.37z M38.29,492.27h7.11
					l-3.57-10.19L38.29,492.27z"/>
				<path class="st5" d="M64.03,501.45v-8.72l-8.23-15.8h5.08l5.43,11.31l5.4-11.31h5.01l-8.2,15.8v8.72H64.03z"/>
				<path class="st5" d="M83.62,501.45v-24.52h16.01v3.61H88.1v6.72h10.47v3.5H88.1v7.08h11.52v3.61H83.62z"/>
				<path class="st5" d="M107.89,501.45v-24.52h9c1.96,0,3.58,0.33,4.85,1c1.27,0.66,2.22,1.56,2.86,2.7
					c0.63,1.13,0.95,2.39,0.95,3.77c0,1.49-0.39,2.86-1.17,4.1c-0.78,1.24-2,2.14-3.66,2.7l5.08,10.27h-5.15l-4.55-9.67h-3.71v9.67
					H107.89z M112.37,488.48h4.24c1.49,0,2.59-0.36,3.29-1.08c0.7-0.72,1.05-1.68,1.05-2.87c0-1.17-0.34-2.1-1.03-2.8
					c-0.69-0.7-1.8-1.05-3.35-1.05h-4.2V488.48z"/>
				<path class="st5" d="M133.74,501.45v-24.52h4.48v24.52H133.74z"/>
				<path class="st5" d="M155.39,501.87c-1.8,0-3.39-0.31-4.76-0.93c-1.38-0.62-2.46-1.51-3.26-2.66c-0.79-1.16-1.2-2.56-1.23-4.22
					h4.73c0.05,1.14,0.46,2.11,1.24,2.89c0.78,0.78,1.86,1.17,3.24,1.17c1.19,0,2.14-0.29,2.84-0.86c0.7-0.57,1.05-1.34,1.05-2.29
					c0-1.01-0.31-1.79-0.93-2.35c-0.62-0.56-1.44-1.02-2.47-1.37c-1.03-0.35-2.13-0.72-3.29-1.12c-1.89-0.65-3.33-1.49-4.33-2.52
					c-0.99-1.03-1.49-2.39-1.49-4.1c-0.02-1.45,0.32-2.69,1.03-3.73c0.71-1.04,1.69-1.84,2.93-2.42c1.24-0.57,2.66-0.86,4.27-0.86
					c1.63,0,3.08,0.29,4.33,0.87c1.25,0.59,2.23,1.4,2.94,2.45c0.71,1.05,1.09,2.3,1.14,3.75h-4.8c-0.02-0.86-0.36-1.63-1-2.29
					c-0.64-0.66-1.54-1-2.68-1c-0.98-0.02-1.8,0.22-2.47,0.72c-0.67,0.5-1,1.23-1,2.19c0,0.82,0.26,1.47,0.77,1.94
					c0.51,0.48,1.22,0.88,2.1,1.21c0.89,0.33,1.9,0.68,3.05,1.05c1.22,0.42,2.32,0.91,3.33,1.47c1,0.56,1.81,1.3,2.42,2.22
					c0.61,0.92,0.91,2.11,0.91,3.56c0,1.28-0.33,2.48-0.98,3.57c-0.65,1.1-1.62,1.98-2.91,2.65
					C158.83,501.53,157.26,501.87,155.39,501.87z"/>
				<path class="st5" d="M183.06,501.87c-2.48,0-4.6-0.53-6.38-1.59s-3.14-2.55-4.1-4.45c-0.96-1.9-1.44-4.1-1.44-6.6
					c0-2.5,0.48-4.71,1.44-6.62c0.96-1.91,2.32-3.41,4.1-4.48c1.77-1.07,3.9-1.61,6.38-1.61c2.94,0,5.35,0.73,7.23,2.19
					c1.88,1.46,3.05,3.51,3.52,6.15h-4.94c-0.3-1.33-0.95-2.38-1.94-3.14c-0.99-0.76-2.31-1.14-3.94-1.14
					c-2.27,0-4.04,0.77-5.32,2.31c-1.28,1.54-1.93,3.65-1.93,6.34c0,2.69,0.64,4.8,1.93,6.32s3.06,2.29,5.32,2.29
					c1.63,0,2.95-0.36,3.94-1.07c0.99-0.71,1.64-1.7,1.94-2.96h4.94c-0.47,2.52-1.64,4.5-3.52,5.92
					C188.42,501.15,186,501.87,183.06,501.87z"/>
				<path class="st5" d="M201.8,501.45v-24.52h4.48v10.19h11v-10.19h4.48v24.52h-4.48v-10.69h-11v10.69H201.8z"/>
				<path class="st5" d="M230.56,501.45v-24.52h16.01v3.61h-11.52v6.72h10.47v3.5h-10.47v7.08h11.52v3.61H230.56z"/>
				<path class="st5" d="M265.62,501.45l8.97-24.52h5.04l8.97,24.52h-4.76l-1.96-5.68h-9.56l-2,5.68H265.62z M273.54,492.27h7.11
					l-3.57-10.19L273.54,492.27z"/>
				<path class="st5" d="M305.1,501.87c-2.31,0-4.33-0.53-6.06-1.58c-1.73-1.05-3.07-2.51-4.03-4.39c-0.96-1.88-1.44-4.07-1.44-6.57
					c0-2.52,0.5-4.75,1.49-6.67c0.99-1.93,2.41-3.43,4.24-4.52c1.83-1.09,4.01-1.63,6.53-1.63c2.87,0,5.25,0.69,7.15,2.07
					c1.89,1.38,3.12,3.28,3.68,5.71h-5.01c-0.37-1.14-1.05-2.04-2.03-2.68c-0.98-0.64-2.24-0.96-3.78-0.96
					c-2.45,0-4.35,0.78-5.68,2.33c-1.33,1.56-2,3.69-2,6.39s0.66,4.81,1.98,6.29c1.32,1.48,3.11,2.22,5.38,2.22
					c2.22,0,3.89-0.6,5.03-1.8c1.13-1.2,1.81-2.78,2.05-4.75h-6.2v-3.36h10.72v13.49h-4.13l-0.35-3.23
					c-0.79,1.17-1.79,2.07-2.98,2.7C308.47,501.55,306.95,501.87,305.1,501.87z"/>
				<path class="st5" d="M325.49,501.45v-24.52h16.01v3.61h-11.52v6.72h10.47v3.5h-10.47v7.08h11.52v3.61H325.49z"/>
				<path class="st5" d="M349.76,501.45v-24.52h4.48l11.52,17.27v-17.27h4.48v24.52h-4.48l-11.52-17.23v17.23H349.76z"/>
				<path class="st5" d="M384.76,501.45v-20.91h-7.15v-3.61h18.81v3.61h-7.18v20.91H384.76z"/>
				<path class="st5" d="M413.24,501.87c-1.8,0-3.42-0.36-4.87-1.07c-1.45-0.71-2.6-1.79-3.45-3.24c-0.85-1.45-1.28-3.28-1.28-5.5
					v-15.13h4.48v15.16c0,1.92,0.46,3.34,1.38,4.27c0.92,0.93,2.2,1.4,3.84,1.4c1.61,0,2.89-0.47,3.82-1.4s1.4-2.36,1.4-4.27v-15.16
					h4.48v15.13c0,2.22-0.44,4.05-1.33,5.5c-0.89,1.45-2.07,2.53-3.56,3.24C416.67,501.51,415.03,501.87,413.24,501.87z"/>
				<path class="st5" d="M431.66,501.45v-24.52h9c1.96,0,3.58,0.33,4.85,1c1.27,0.66,2.23,1.56,2.86,2.7
					c0.63,1.13,0.95,2.39,0.95,3.77c0,1.49-0.39,2.86-1.17,4.1c-0.78,1.24-2,2.14-3.66,2.7l5.08,10.27h-5.15l-4.55-9.67h-3.71v9.67
					H431.66z M436.15,488.48h4.24c1.49,0,2.59-0.36,3.29-1.08c0.7-0.72,1.05-1.68,1.05-2.87c0-1.17-0.34-2.1-1.03-2.8
					c-0.69-0.7-1.8-1.05-3.35-1.05h-4.2V488.48z"/>
				<path class="st5" d="M6.03,543.48v-24.52h15.83v3.61H10.51v6.87h9.18v3.54h-9.18v10.51H6.03z"/>
				<path class="st5" d="M38.81,543.9c-1.8,0-3.42-0.36-4.87-1.07c-1.45-0.71-2.6-1.79-3.45-3.24c-0.85-1.45-1.28-3.28-1.28-5.5
					v-15.13h4.48v15.17c0,1.91,0.46,3.34,1.38,4.27c0.92,0.93,2.2,1.4,3.84,1.4c1.61,0,2.88-0.47,3.82-1.4
					c0.93-0.93,1.4-2.36,1.4-4.27v-15.17h4.48v15.13c0,2.22-0.44,4.05-1.33,5.5c-0.89,1.45-2.07,2.53-3.56,3.24
					C42.25,543.55,40.61,543.9,38.81,543.9z M35.73,516.58c-0.61,0-1.12-0.21-1.54-0.63c-0.42-0.42-0.63-0.93-0.63-1.54
					c0-0.61,0.21-1.12,0.63-1.54c0.42-0.42,0.93-0.63,1.54-0.63c0.61,0,1.12,0.21,1.54,0.63c0.42,0.42,0.63,0.93,0.63,1.54
					c0,0.61-0.21,1.12-0.63,1.54C36.85,516.37,36.34,516.58,35.73,516.58z M42.03,516.58c-0.61,0-1.12-0.21-1.54-0.63
					c-0.42-0.42-0.63-0.93-0.63-1.54c0-0.61,0.21-1.12,0.63-1.54c0.42-0.42,0.93-0.63,1.54-0.63s1.12,0.21,1.54,0.63
					c0.42,0.42,0.63,0.93,0.63,1.54c0,0.61-0.21,1.12-0.63,1.54C43.16,516.37,42.64,516.58,42.03,516.58z"/>
				<path class="st5" d="M57.24,543.48v-24.52h9c1.96,0,3.58,0.33,4.85,1c1.27,0.67,2.22,1.57,2.86,2.7
					c0.63,1.13,0.95,2.39,0.95,3.77c0,1.5-0.39,2.86-1.17,4.1c-0.78,1.24-2,2.14-3.66,2.7l5.08,10.26h-5.15l-4.55-9.67h-3.71v9.67
					H57.24z M61.72,530.52h4.24c1.49,0,2.59-0.37,3.29-1.09c0.7-0.72,1.05-1.68,1.05-2.87c0-1.17-0.34-2.1-1.03-2.8
					c-0.69-0.7-1.8-1.05-3.35-1.05h-4.2V530.52z"/>
				<path class="st5" d="M95.45,543.48v-24.52h8.37c2.87,0,5.24,0.51,7.09,1.53c1.86,1.01,3.23,2.44,4.13,4.27
					c0.9,1.83,1.35,3.99,1.35,6.46c0,2.48-0.45,4.63-1.35,6.46c-0.9,1.84-2.28,3.26-4.13,4.27s-4.22,1.52-7.09,1.52H95.45z
					 M99.94,539.63h3.68c2.05,0,3.68-0.33,4.87-1c1.19-0.66,2.04-1.62,2.56-2.87c0.51-1.25,0.77-2.76,0.77-4.54
					c0-1.75-0.26-3.26-0.77-4.52c-0.51-1.26-1.37-2.23-2.56-2.91c-1.19-0.68-2.82-1.01-4.87-1.01h-3.68V539.63z"/>
				<path class="st5" d="M124.39,543.48v-24.52h4.48v24.52H124.39z"/>
				<path class="st5" d="M148.38,543.9c-2.31,0-4.33-0.53-6.06-1.58c-1.73-1.05-3.07-2.52-4.03-4.4c-0.96-1.88-1.44-4.07-1.44-6.57
					c0-2.52,0.5-4.75,1.49-6.67c0.99-1.92,2.41-3.43,4.24-4.52c1.83-1.08,4.01-1.63,6.53-1.63c2.87,0,5.26,0.69,7.15,2.07
					c1.89,1.38,3.12,3.28,3.68,5.71h-5.01c-0.37-1.14-1.05-2.04-2.03-2.68c-0.98-0.64-2.24-0.96-3.78-0.96
					c-2.45,0-4.34,0.78-5.67,2.33c-1.33,1.55-2,3.68-2,6.39c0,2.71,0.66,4.81,1.98,6.29c1.32,1.48,3.11,2.23,5.38,2.23
					c2.22,0,3.89-0.6,5.03-1.8c1.13-1.2,1.82-2.79,2.05-4.75h-6.2v-3.36h10.72v13.49h-4.13l-0.35-3.22
					c-0.79,1.17-1.79,2.07-2.98,2.7C151.75,543.59,150.23,543.9,148.38,543.9z"/>
				<path class="st5" d="M168.77,543.48v-24.52h4.48v24.52H168.77z"/>
				<path class="st5" d="M187.76,543.48v-20.91h-7.15v-3.61h18.81v3.61h-7.18v20.91H187.76z"/>
				<path class="st5" d="M202.61,543.48l8.97-24.52h5.04l8.97,24.52h-4.76l-1.96-5.67h-9.56l-2,5.67H202.61z M210.52,534.3h7.11
					l-3.57-10.19L210.52,534.3z"/>
				<path class="st5" d="M232.77,543.48v-24.52h4.48v21.02h10.86v3.5H232.77z"/>
				<path class="st5" d="M256.1,543.48v-24.52h16.01v3.61h-11.52v6.73h10.47v3.5h-10.47v7.08h11.52v3.61H256.1z"/>
				<path class="st5" d="M288.74,543.9c-1.8,0-3.38-0.31-4.76-0.93c-1.38-0.62-2.46-1.51-3.26-2.66c-0.79-1.16-1.2-2.56-1.23-4.22
					h4.73c0.05,1.14,0.46,2.11,1.24,2.89c0.78,0.78,1.86,1.17,3.24,1.17c1.19,0,2.14-0.29,2.84-0.86c0.7-0.57,1.05-1.34,1.05-2.29
					c0-1-0.31-1.79-0.93-2.35c-0.62-0.56-1.44-1.01-2.47-1.36c-1.03-0.35-2.13-0.72-3.29-1.12c-1.89-0.65-3.33-1.5-4.33-2.52
					c-0.99-1.03-1.49-2.39-1.49-4.1c-0.02-1.45,0.32-2.69,1.03-3.73c0.71-1.04,1.69-1.84,2.93-2.42s2.66-0.86,4.27-0.86
					c1.63,0,3.08,0.29,4.33,0.88c1.25,0.58,2.23,1.4,2.94,2.45c0.71,1.05,1.09,2.3,1.14,3.75h-4.8c-0.02-0.86-0.36-1.63-1-2.29
					c-0.64-0.66-1.54-1-2.68-1c-0.98-0.02-1.8,0.22-2.47,0.72s-1,1.23-1,2.19c0,0.82,0.26,1.47,0.77,1.95
					c0.51,0.48,1.22,0.88,2.1,1.21c0.89,0.33,1.9,0.68,3.05,1.05c1.22,0.42,2.32,0.91,3.33,1.47c1,0.56,1.81,1.3,2.42,2.23
					c0.61,0.92,0.91,2.11,0.91,3.56c0,1.29-0.33,2.48-0.98,3.57c-0.65,1.1-1.62,1.98-2.91,2.64
					C292.19,543.57,290.61,543.9,288.74,543.9z"/>
			</g>
		</g>
		<g>
			<path class="st5" d="M388.3,4.62v58.86h-58.86v58.43h-58.86v58.86h-58.86v-58.86h58.86V63.48h-58.86V4.62V4.62H5.85v443.71
				h443.71V4.62H388.3z M115.68,369.18c0,3.05-0.74,5.81-2.22,8.27c-1.49,2.46-3.48,4.45-5.98,5.98c-2.5,1.53-5.28,2.29-8.33,2.29
				H40.63v-97.95h13.74v24.17h44.78c3.05,0,5.83,0.76,8.33,2.29c2.5,1.53,4.49,3.52,5.98,5.98c1.48,2.46,2.22,5.22,2.22,8.27V369.18
				z M225.25,397.42c0,3.05-0.74,5.83-2.22,8.33c-1.49,2.5-3.48,4.49-5.98,5.98c-2.5,1.48-5.28,2.23-8.33,2.23h-45.54v-13.87h45.16
				c0.85,0,1.59-0.32,2.23-0.95c0.63-0.64,0.95-1.38,0.95-2.23v-11.19h-44.78c-2.97,0-5.73-0.74-8.27-2.23
				c-2.54-1.48-4.56-3.5-6.04-6.04c-1.49-2.54-2.23-5.3-2.23-8.27v-56.99h13.74v56.61c0,0.85,0.32,1.59,0.95,2.22
				c0.64,0.64,1.38,0.96,2.23,0.96h41.22c0.85,0,1.59-0.32,2.23-0.96c0.63-0.63,0.95-1.38,0.95-2.22v-56.61h13.74V397.42z
				 M304.54,325.67h-30.28v43.13c0,0.85,0.32,1.59,0.96,2.22c0.63,0.64,1.38,0.96,2.22,0.96h27.1v13.74h-27.48
				c-3.05,0-5.83-0.76-8.33-2.29c-2.5-1.53-4.49-3.52-5.98-5.98c-1.48-2.46-2.22-5.22-2.22-8.27v-80.53h13.74v23.28h30.28V325.67z
				 M329.44,180.77h58.86v58.86h-58.86V180.77z M414.32,355.69H353v13.1c0,0.85,0.32,1.59,0.95,2.22c0.64,0.64,1.38,0.96,2.23,0.96
				h58.14v13.74H355.8c-3.05,0-5.81-0.76-8.27-2.29c-2.46-1.53-4.45-3.52-5.98-5.98c-1.53-2.46-2.29-5.22-2.29-8.27v-40.71
				c0-3.05,0.76-5.81,2.29-8.27s3.52-4.45,5.98-5.98c2.46-1.53,5.22-2.29,8.27-2.29h41.98c3.05,0,5.83,0.74,8.33,2.23
				c2.5,1.49,4.49,3.5,5.98,6.04c1.48,2.54,2.22,5.3,2.22,8.27V355.69z"/>
			<polygon class="st5" points="329.44,4.62 270.59,4.62 270.59,4.62 270.59,63.48 329.44,63.48 			"/>
		</g>
	</g>
</g>
</svg>
